<?xml version="1.0" encoding="UTF-8"?>
<svg width="411px" height="629px" viewBox="0 0 411 629" version="1.1" xmlns="http://www.w3.org/2000/svg" xmlns:xlink="http://www.w3.org/1999/xlink">
    <!-- Generator: Sketch 49 (51002) - http://www.bohemiancoding.com/sketch -->
    <title>Group 4</title>
    <desc>Created with Sketch.</desc>
    <defs>
        <linearGradient x1="-11.1928076%" y1="100%" x2="113.51699%" y2="0%" id="linearGradient-1">
            <stop stop-color="#02AAB0" offset="0%"></stop>
            <stop stop-color="#00CDAC" offset="100%"></stop>
        </linearGradient>
    </defs>
    <g id="Material-Design-Stickersheet" stroke="none" stroke-width="1" fill="none" fill-rule="evenodd">
        <g id="Artboard" transform="translate(-32.000000, -57.000000)" fill-rule="nonzero">
            <g id="Group-3" transform="translate(32.000000, 56.000000)">
                <g id="Group-4">
                    <g id="Group-2" transform="translate(118.000000, 0.000000)" fill="url(#linearGradient-1)">
                        <path d="M105.9,272.43 C98.47,286.1 93.17,299.75 95.53,315.17 C96.91,324.17 102.22,331 109.19,336.76 C125.19,349.98 134.27,367.17 136.92,387.62 C138.37,398.8 133.82,402.39 123.02,398.94 C106.08,393.52 93.09,382.28 81.18,369.61 C37.39,323 49.18,252.74 81.18,214.78 C105.08,186.4 136.28,173.2 172.64,170.65 C173.81,170.57 174.98,170.43 176.58,170.28 C179.68,152.65 178.28,135.41 171.2,119.12 C155.42,82.81 128.54,59.25 89.39,50.87 C75.82,47.96 62.19,50.1 48.67,52.2 C27.93,55.42 13.58,49.33 4.39,33.48 C-2.7,21.26 0.2,11.84 13.39,7.04 C20.4657199,4.51018093 27.8174501,2.83170372 35.29,2.04 C112.59,-6.43 175,37.6 201.64,85.27 C218.57,115.56 222.64,148.01 215.79,181.85 C214.7,187.25 215.26,191.02 219.06,195.59 C252.393333,235.59 266.636667,281.566667 261.79,333.52 C261.445212,337.219629 261.912778,340.949919 263.16,344.45 C277.51,382.73 285.58,422.45 288.84,463.02 C290.9,488.64 292.24,514.39 292.28,540.09 C292.28,562.09 288.94,584.02 278.28,603.85 C274.907339,610.105113 270.593687,615.804936 265.49,620.75 C257.15,628.75 247.38,628.75 237.96,621.75 C222.4,610.14 217.18,594.58 220.47,575.67 C224.27,553.84 228.27,532.02 231.28,510.07 C234,490.22 234.93,470.21 230.76,450.34 C228.397365,438.436461 223.181458,427.284029 215.56,417.84 C208.39,409.06 201.34,409.65 197.4,420.3 C192.56,433.42 189.11,447.08 185.66,460.67 C177.49,492.9 169.57,525.19 155.85,555.67 C145.72,578.11 133.51,599.33 116.16,617.23 C114.636237,618.789694 113.016408,620.25255 111.31,621.61 C94.65,634.98 80.47,631.61 71.31,612.14 C63.38,595.22 63.98,578.68 74.22,562.96 C83.94,548.03 94.83,533.83 103.96,518.56 C132.64,470.62 145.82,418.79 140.06,362.87 C136.78,331.09 127.06,301.4 108.13,275.18 C107.64,274.42 106.98,273.72 105.9,272.43 Z" id="Shape"></path>
                        <path d="M112.74,178.95 C84.74,178.59 63.63,156.39 64.05,127.73 C64.45,100.95 86.93,79.73 114.5,80.07 C141.63,80.42 163.02,102.85 162.75,130.69 C162.5,157.46 139.87,179.33 112.74,178.95 Z" id="Shape"></path>
                    </g>
                    <g id="Group" transform="translate(0.000000, 6.000000)" fill="#424242">
                        <polygon id="Shape" points="27.16 60.6 58.04 60.6 58.04 81.05 27.16 81.05 27.16 122.97 66.06 122.97 66.06 143.42 4.71 143.42 4.71 0.27 66.06 0.27 66.06 20.72 27.16 20.72"></polygon>
                        <path d="M48.27,302.95 C47.04,299.27 46.27,297.02 46.27,285.36 L46.27,262.87 C46.27,249.58 41.77,244.67 31.55,244.67 L23.78,244.67 L23.78,302.95 L1.28,302.95 L1.28,159.8 L35.16,159.8 C58.47,159.8 68.49,170.64 68.49,192.73 L68.49,203.98 C68.49,218.7 63.79,228.31 53.77,232.98 C65.02,237.68 68.7,248.52 68.7,263.45 L68.7,285.54 C68.7,292.54 68.91,297.61 71.16,302.92 L48.27,302.95 Z M23.73,180.25 L23.73,224.25 L32.52,224.25 C40.9,224.25 46.02,220.57 46.02,209.12 L46.02,194.97 C46.02,184.74 42.54,180.25 34.57,180.25 L23.73,180.25 Z" id="Shape"></path>
                        <path d="M36.16,382.73 L67.65,382.73 L67.65,428.13 C67.65,451.03 56.2,464.13 34.11,464.13 C12.02,464.13 0.57,451.04 0.57,428.13 L0.57,353.7 C0.57,330.8 12.02,317.7 34.11,317.7 C56.2,317.7 67.65,330.79 67.65,353.7 L67.65,367.6 L46.42,367.6 L46.42,352.26 C46.42,342.03 41.92,338.15 34.76,338.15 C27.6,338.15 23.1,342.03 23.1,352.26 L23.1,429.56 C23.1,439.79 27.6,443.46 34.76,443.46 C41.92,443.46 46.42,439.78 46.42,429.56 L46.42,403.19 L36.16,403.19 L36.16,382.73 Z" id="Shape"></path>
                        <path d="M2.84217094e-14,513.23 C2.84217094e-14,490.33 12.07,477.23 34.15,477.23 C56.23,477.23 68.3,490.32 68.3,513.23 L68.3,587.67 C68.3,610.57 56.24,623.67 34.15,623.67 C12.06,623.67 0,610.58 0,587.67 L2.84217094e-14,513.23 Z M22.5,589.1 C22.5,599.33 27,603.21 34.16,603.21 C41.32,603.21 45.82,599.33 45.82,589.1 L45.82,511.8 C45.82,501.57 41.32,497.69 34.16,497.69 C27,497.69 22.5,501.57 22.5,511.8 L22.5,589.1 Z" id="Shape"></path>
                    </g>
                </g>
            </g>
        </g>
    </g>
</svg>