<?xml version="1.0" standalone="no"?>
<!DOCTYPE svg PUBLIC "-//W3C//DTD SVG 20010904//EN"
 "http://www.w3.org/TR/2001/REC-SVG-20010904/DTD/svg10.dtd">
<svg version="1.0" xmlns="http://www.w3.org/2000/svg"
 width="629.000000pt" height="629.000000pt" viewBox="0 0 629.000000 629.000000"
 preserveAspectRatio="xMidYMid meet">
<metadata>
Created by potrace 1.11, written by Peter Selinger 2001-2013
</metadata>
<g transform="translate(0.000000,629.000000) scale(0.100000,-0.100000)"
fill="#000000" stroke="none">
<path d="M2079 6286 c-2 -2 -31 -6 -64 -10 -77 -8 -199 -41 -245 -67 -51 -29
-80 -76 -80 -129 0 -89 95 -222 192 -269 82 -39 213 -49 343 -25 251 46 446 8
715 -137 22 -13 68 -46 124 -89 149 -118 307 -361 367 -565 20 -68 24 -102 24
-232 0 -83 -3 -154 -6 -158 -8 -7 -31 -11 -114 -19 -478 -49 -858 -326 -1030
-752 -44 -108 -65 -182 -80 -274 -3 -25 -9 -58 -11 -74 -10 -60 -6 -244 5
-316 27 -161 81 -302 168 -433 61 -93 238 -269 332 -331 144 -95 282 -130 319
-79 27 37 3 191 -48 313 -13 30 -42 84 -66 120 -42 65 -59 84 -173 194 -84 82
-115 147 -118 252 -2 80 14 166 43 234 40 91 59 130 65 130 13 0 120 -174 165
-266 41 -86 117 -298 128 -357 3 -15 7 -35 10 -45 3 -9 7 -33 10 -52 3 -19 7
-44 10 -55 4 -21 13 -97 22 -180 17 -169 5 -417 -33 -630 -61 -354 -206 -686
-466 -1071 -179 -265 -221 -338 -237 -416 -25 -115 6 -265 75 -373 135 -210
320 -149 572 190 29 39 58 81 65 95 7 14 18 32 24 40 27 33 154 291 197 400
61 154 157 451 171 525 2 11 11 45 20 76 9 31 18 65 20 75 15 70 103 397 132
486 49 151 87 189 156 157 28 -13 107 -116 141 -184 99 -201 117 -480 56 -870
-11 -71 -22 -148 -25 -170 -3 -22 -11 -74 -19 -115 -62 -324 -69 -417 -41
-515 47 -161 215 -304 328 -280 177 38 343 347 373 695 11 125 7 426 -9 695
-13 208 -24 334 -40 459 -24 186 -60 382 -96 521 -12 44 -23 89 -26 100 -7 33
-54 184 -91 290 -29 84 -34 112 -32 175 6 223 1 389 -17 485 -26 145 -71 307
-111 395 -72 163 -151 296 -255 433 -71 93 -89 133 -83 178 3 19 11 74 19 123
24 161 14 386 -24 526 -7 25 -13 52 -15 60 -2 8 -20 57 -40 109 -136 344 -427
649 -790 829 -159 79 -346 140 -480 158 -27 3 -54 9 -59 12 -10 6 -361 14
-367 8z"/>
<path d="M2684 5480 c-155 -42 -282 -157 -336 -305 -26 -72 -31 -222 -9 -300
59 -212 235 -352 452 -360 140 -6 254 35 353 126 166 151 208 375 109 585 -33
73 -138 181 -209 217 -109 55 -243 69 -360 37z"/>
</g>
</svg>
