<?xml version="1.0" encoding="UTF-8"?>
<svg width="23px" height="25px" viewBox="0 0 23 25" version="1.1" xmlns="http://www.w3.org/2000/svg" xmlns:xlink="http://www.w3.org/1999/xlink">
    <!-- Generator: Sketch 49 (51002) - http://www.bohemiancoding.com/sketch -->
    <title>Shape</title>
    <desc>Created with Sketch.</desc>
    <defs>
        <linearGradient x1="-11.1928076%" y1="100%" x2="113.51699%" y2="0%" id="linearGradient-1">
            <stop stop-color="#02AAB0" offset="0%"></stop>
            <stop stop-color="#00CDAC" offset="100%"></stop>
        </linearGradient>
    </defs>
    <g id="Material-Design-Stickersheet" stroke="none" stroke-width="1" fill="none" fill-rule="evenodd">
        <g id="setup" transform="translate(-120.000000, -20.000000)" fill="url(#linearGradient-1)" fill-rule="nonzero">
            <path d="M138.521318,28.5975779 C137.538738,28.5975779 136.67898,28.9660455 136.064868,29.5801582 L127.344467,24.544434 C127.46729,24.298789 127.46729,23.9303213 127.46729,23.6846762 C127.46729,21.596693 125.870597,20 123.782613,20 C121.69463,20 120.097937,21.596693 120.097937,23.6846762 C120.097937,25.7726594 121.69463,27.3693525 123.782613,27.3693525 C124.765194,27.3693525 125.624952,27.0008849 126.239064,26.3867722 L134.959465,31.4224964 C134.836642,31.6681414 134.836642,32.0366091 134.836642,32.2822541 C134.836642,32.5278992 134.836642,32.8963669 134.959465,33.1420119 L126.239064,38.3005587 C125.624952,37.686446 124.765194,37.3179783 123.782613,37.3179783 C121.817453,37.3179783 120.22076,38.9146714 120.22076,40.8798321 C120.22076,42.8449927 121.817453,44.4416858 123.782613,44.4416858 C125.747774,44.4416858 127.344467,42.8449927 127.344467,40.8798321 C127.344467,40.634187 127.344467,40.3885419 127.221645,40.0200743 L135.942045,34.8615275 C136.556158,35.4756402 137.415916,35.8441079 138.398496,35.8441079 C140.486479,35.8441079 142.083172,34.2474148 142.083172,32.1594316 C142.083172,30.0714484 140.609302,28.5975779 138.521318,28.5975779 Z" id="Shape" transform="translate(131.090555, 32.220843) scale(-1, 1) translate(-131.090555, -32.220843) "></path>
        </g>
    </g>
</svg>